<mxfile host="app.diagrams.net" agent="Mozilla/5.0 (Windows NT 10.0; Win64; x64) AppleWebKit/537.36 (KHTML, like Gecko) Chrome/134.0.0.0 Safari/537.36" version="26.1.1">
  <diagram name="Page-1" id="9WfthKhYCuRwb9qKhknz">
    <mxGraphModel dx="880" dy="460" grid="1" gridSize="10" guides="1" tooltips="1" connect="1" arrows="1" fold="1" page="1" pageScale="1" pageWidth="2339" pageHeight="3300" math="0" shadow="0">
      <root>
        <mxCell id="0" />
        <mxCell id="1" parent="0" />
        <mxCell id="ePrwDm4OLMYmibVaFztz-1" value="" style="rounded=0;whiteSpace=wrap;html=1;fillColor=none;strokeColor=#949494;labelBorderColor=none;dashed=1;" parent="1" vertex="1">
          <mxGeometry x="30" y="120" width="140" height="440" as="geometry" />
        </mxCell>
        <mxCell id="ePrwDm4OLMYmibVaFztz-2" value="&lt;font style=&quot;font-size: 15px;&quot;&gt;Sources&lt;/font&gt;" style="rounded=0;whiteSpace=wrap;html=1;strokeColor=none;" parent="1" vertex="1">
          <mxGeometry x="65" y="110" width="70" height="20" as="geometry" />
        </mxCell>
        <mxCell id="ePrwDm4OLMYmibVaFztz-4" value="" style="rounded=0;whiteSpace=wrap;html=1;fillColor=none;strokeColor=#949494;labelBorderColor=none;dashed=1;" parent="1" vertex="1">
          <mxGeometry x="200" y="120" width="520" height="440" as="geometry" />
        </mxCell>
        <mxCell id="ePrwDm4OLMYmibVaFztz-5" value="&lt;font style=&quot;font-size: 18px;&quot;&gt;Data Warehouse&lt;/font&gt;" style="rounded=0;whiteSpace=wrap;html=1;strokeColor=none;" parent="1" vertex="1">
          <mxGeometry x="405" y="110" width="155" height="20" as="geometry" />
        </mxCell>
        <mxCell id="ePrwDm4OLMYmibVaFztz-6" value="" style="rounded=0;whiteSpace=wrap;html=1;fillColor=none;strokeColor=#949494;labelBorderColor=none;dashed=1;" parent="1" vertex="1">
          <mxGeometry x="775" y="120" width="120" height="440" as="geometry" />
        </mxCell>
        <mxCell id="ePrwDm4OLMYmibVaFztz-7" value="&lt;font style=&quot;font-size: 15px;&quot;&gt;Consume&lt;/font&gt;" style="rounded=0;whiteSpace=wrap;html=1;strokeColor=none;" parent="1" vertex="1">
          <mxGeometry x="800" y="110" width="70" height="20" as="geometry" />
        </mxCell>
        <mxCell id="ePrwDm4OLMYmibVaFztz-8" value="Bronze Layer" style="rounded=0;whiteSpace=wrap;html=1;fillColor=#ffe6cc;strokeColor=#d79b00;" parent="1" vertex="1">
          <mxGeometry x="220" y="150" width="140" height="30" as="geometry" />
        </mxCell>
        <mxCell id="ePrwDm4OLMYmibVaFztz-9" value="" style="rounded=0;whiteSpace=wrap;html=1;strokeColor=#ec9736;" parent="1" vertex="1">
          <mxGeometry x="220" y="190" width="140" height="340" as="geometry" />
        </mxCell>
        <mxCell id="ePrwDm4OLMYmibVaFztz-10" value="Silver Layer" style="rounded=0;whiteSpace=wrap;html=1;strokeColor=#bfbbbb;" parent="1" vertex="1">
          <mxGeometry x="391.25" y="150" width="147.5" height="30" as="geometry" />
        </mxCell>
        <mxCell id="ePrwDm4OLMYmibVaFztz-11" value="Gold Layer" style="rounded=0;whiteSpace=wrap;html=1;fillColor=#fff2cc;strokeColor=#d6b656;" parent="1" vertex="1">
          <mxGeometry x="560.63" y="150" width="148.75" height="30" as="geometry" />
        </mxCell>
        <mxCell id="ePrwDm4OLMYmibVaFztz-12" value="" style="rounded=0;whiteSpace=wrap;html=1;strokeColor=#BFBBBB;" parent="1" vertex="1">
          <mxGeometry x="390" y="190" width="150" height="340" as="geometry" />
        </mxCell>
        <mxCell id="ePrwDm4OLMYmibVaFztz-13" value="" style="rounded=0;whiteSpace=wrap;html=1;strokeColor=#FFB366;" parent="1" vertex="1">
          <mxGeometry x="560.63" y="190" width="150" height="340" as="geometry" />
        </mxCell>
        <mxCell id="ePrwDm4OLMYmibVaFztz-14" value="CRM" style="image;aspect=fixed;html=1;points=[];align=center;fontSize=12;image=img/lib/azure2/general/Folder_Blank.svg;" parent="1" vertex="1">
          <mxGeometry x="76" y="180" width="49.29" height="40" as="geometry" />
        </mxCell>
        <mxCell id="ePrwDm4OLMYmibVaFztz-15" value="" style="image;aspect=fixed;html=1;points=[];align=center;fontSize=12;image=img/lib/azure2/general/File.svg;" parent="1" vertex="1">
          <mxGeometry x="110" y="180" width="23.54" height="29" as="geometry" />
        </mxCell>
        <mxCell id="ePrwDm4OLMYmibVaFztz-16" value="ERP" style="image;aspect=fixed;html=1;points=[];align=center;fontSize=12;image=img/lib/azure2/general/Folder_Blank.svg;" parent="1" vertex="1">
          <mxGeometry x="76" y="270" width="49.29" height="40" as="geometry" />
        </mxCell>
        <mxCell id="ePrwDm4OLMYmibVaFztz-17" value="" style="image;aspect=fixed;html=1;points=[];align=center;fontSize=12;image=img/lib/azure2/general/File.svg;" parent="1" vertex="1">
          <mxGeometry x="110" y="270" width="23.54" height="29" as="geometry" />
        </mxCell>
        <mxCell id="ePrwDm4OLMYmibVaFztz-25" value="" style="endArrow=none;html=1;rounded=0;exitX=0.167;exitY=0.75;exitDx=0;exitDy=0;exitPerimeter=0;" parent="1" edge="1">
          <mxGeometry width="50" height="50" relative="1" as="geometry">
            <mxPoint x="70.03999999999996" y="360" as="sourcePoint" />
            <mxPoint x="145" y="360" as="targetPoint" />
          </mxGeometry>
        </mxCell>
        <mxCell id="SIshTY0Xp3IrldlFeB-g-1" value="&lt;b&gt;Object Type &lt;/b&gt;: CSV File&lt;div&gt;&lt;b&gt;Interface&lt;/b&gt; : Files in Folder&lt;/div&gt;" style="text;html=1;align=center;verticalAlign=middle;whiteSpace=wrap;rounded=0;" parent="1" vertex="1">
          <mxGeometry x="30" y="410" width="140" height="30" as="geometry" />
        </mxCell>
        <mxCell id="SIshTY0Xp3IrldlFeB-g-2" value="" style="shape=cylinder3;whiteSpace=wrap;html=1;boundedLbl=1;backgroundOutline=1;size=15;fillColor=none;strokeColor=#FFB366;" parent="1" vertex="1">
          <mxGeometry x="270" y="220" width="40" height="50" as="geometry" />
        </mxCell>
        <mxCell id="SIshTY0Xp3IrldlFeB-g-3" value="" style="shape=cylinder3;whiteSpace=wrap;html=1;boundedLbl=1;backgroundOutline=1;size=15;" parent="1" vertex="1">
          <mxGeometry x="445" y="220" width="40" height="50" as="geometry" />
        </mxCell>
        <mxCell id="SIshTY0Xp3IrldlFeB-g-4" value="" style="shape=cylinder3;whiteSpace=wrap;html=1;boundedLbl=1;backgroundOutline=1;size=15;fillColor=none;strokeColor=#FFC21C;" parent="1" vertex="1">
          <mxGeometry x="615.01" y="220" width="40" height="50" as="geometry" />
        </mxCell>
        <mxCell id="SIshTY0Xp3IrldlFeB-g-5" value="" style="shape=singleArrow;whiteSpace=wrap;html=1;" parent="1" vertex="1">
          <mxGeometry x="160" y="240" width="60" height="24" as="geometry" />
        </mxCell>
        <mxCell id="SIshTY0Xp3IrldlFeB-g-6" value="" style="shape=singleArrow;whiteSpace=wrap;html=1;" parent="1" vertex="1">
          <mxGeometry x="345" y="240" width="60" height="24" as="geometry" />
        </mxCell>
        <mxCell id="SIshTY0Xp3IrldlFeB-g-7" value="" style="shape=singleArrow;whiteSpace=wrap;html=1;" parent="1" vertex="1">
          <mxGeometry x="530" y="240" width="50" height="24" as="geometry" />
        </mxCell>
        <mxCell id="SIshTY0Xp3IrldlFeB-g-8" value="Raw Data" style="text;html=1;align=center;verticalAlign=middle;whiteSpace=wrap;rounded=0;" parent="1" vertex="1">
          <mxGeometry x="260" y="280" width="60" height="30" as="geometry" />
        </mxCell>
        <mxCell id="SIshTY0Xp3IrldlFeB-g-9" value="Cleaned, Standardized Data" style="text;html=1;align=center;verticalAlign=middle;whiteSpace=wrap;rounded=0;" parent="1" vertex="1">
          <mxGeometry x="390" y="290" width="150" height="30" as="geometry" />
        </mxCell>
        <mxCell id="SIshTY0Xp3IrldlFeB-g-10" value="Business-Ready Data" style="text;html=1;align=center;verticalAlign=middle;whiteSpace=wrap;rounded=0;" parent="1" vertex="1">
          <mxGeometry x="590.01" y="290" width="90" height="30" as="geometry" />
        </mxCell>
        <mxCell id="SIshTY0Xp3IrldlFeB-g-11" value="" style="endArrow=none;html=1;rounded=0;exitX=0.167;exitY=0.75;exitDx=0;exitDy=0;exitPerimeter=0;" parent="1" edge="1">
          <mxGeometry width="50" height="50" relative="1" as="geometry">
            <mxPoint x="236.26" y="320" as="sourcePoint" />
            <mxPoint x="343.74" y="320" as="targetPoint" />
          </mxGeometry>
        </mxCell>
        <mxCell id="SIshTY0Xp3IrldlFeB-g-15" value="&lt;b&gt;Object Type&lt;/b&gt; : Tables&lt;div&gt;&lt;span style=&quot;background-color: transparent; color: light-dark(rgb(0, 0, 0), rgb(255, 255, 255));&quot;&gt;&lt;b&gt;Load&lt;/b&gt; :&amp;nbsp;&lt;/span&gt;&lt;/div&gt;&lt;div&gt;Batch Processing&lt;/div&gt;&lt;div&gt;Full Load&lt;/div&gt;&lt;div&gt;Truncate &amp;amp; Insert&lt;/div&gt;&lt;div&gt;&lt;br&gt;&lt;/div&gt;&lt;div&gt;&lt;b&gt;No Transformations&lt;/b&gt;&lt;/div&gt;&lt;div&gt;&lt;b&gt;Data Model&lt;/b&gt; : None (as-is)&lt;br&gt;&lt;div&gt;&lt;br&gt;&lt;/div&gt;&lt;/div&gt;" style="text;html=1;align=center;verticalAlign=middle;whiteSpace=wrap;rounded=0;" parent="1" vertex="1">
          <mxGeometry x="212.5" y="390" width="155" height="40" as="geometry" />
        </mxCell>
        <mxCell id="SIshTY0Xp3IrldlFeB-g-20" value="&lt;b&gt;Object Type&lt;/b&gt; : Tables&lt;div&gt;&lt;span style=&quot;background-color: transparent; color: light-dark(rgb(0, 0, 0), rgb(255, 255, 255));&quot;&gt;&lt;b&gt;Load&lt;/b&gt; :&amp;nbsp;&lt;/span&gt;&lt;/div&gt;&lt;div&gt;Batch Processing&lt;/div&gt;&lt;div&gt;Full Load&lt;/div&gt;&lt;div&gt;Truncate &amp;amp; Insert&lt;/div&gt;&lt;div&gt;&lt;br&gt;&lt;/div&gt;&lt;div&gt;&lt;b&gt;Transformations:&lt;/b&gt;&lt;/div&gt;&lt;div&gt;Data Cleaning&lt;/div&gt;&lt;div&gt;Data standardization&lt;/div&gt;&lt;div&gt;Data Normalization&lt;/div&gt;&lt;div&gt;Derived Columns&lt;/div&gt;&lt;div&gt;Data Enrichment&lt;/div&gt;&lt;div&gt;&lt;b&gt;&lt;br&gt;&lt;/b&gt;&lt;/div&gt;&lt;div&gt;&lt;b&gt;Data Model&lt;/b&gt; : None (as-is)&lt;br&gt;&lt;div&gt;&lt;br&gt;&lt;/div&gt;&lt;/div&gt;" style="text;html=1;align=center;verticalAlign=middle;whiteSpace=wrap;rounded=0;" parent="1" vertex="1">
          <mxGeometry x="383.75" y="410" width="155" height="40" as="geometry" />
        </mxCell>
        <mxCell id="SIshTY0Xp3IrldlFeB-g-22" value="" style="endArrow=none;html=1;rounded=0;exitX=0.167;exitY=0.75;exitDx=0;exitDy=0;exitPerimeter=0;" parent="1" edge="1">
          <mxGeometry width="50" height="50" relative="1" as="geometry">
            <mxPoint x="405" y="320" as="sourcePoint" />
            <mxPoint x="512.48" y="320" as="targetPoint" />
          </mxGeometry>
        </mxCell>
        <mxCell id="SIshTY0Xp3IrldlFeB-g-25" value="" style="endArrow=none;html=1;rounded=0;exitX=0.167;exitY=0.75;exitDx=0;exitDy=0;exitPerimeter=0;" parent="1" edge="1">
          <mxGeometry width="50" height="50" relative="1" as="geometry">
            <mxPoint x="587.5" y="320" as="sourcePoint" />
            <mxPoint x="694.98" y="320" as="targetPoint" />
          </mxGeometry>
        </mxCell>
        <mxCell id="SIshTY0Xp3IrldlFeB-g-26" value="&lt;b&gt;Object Type&lt;/b&gt; : Views&lt;div&gt;&lt;span style=&quot;background-color: transparent; color: light-dark(rgb(0, 0, 0), rgb(255, 255, 255));&quot;&gt;&lt;b&gt;No Load&lt;/b&gt;&amp;nbsp;&lt;/span&gt;&lt;/div&gt;&lt;div&gt;&lt;b&gt;Transformations:&lt;/b&gt;&lt;/div&gt;&lt;div&gt;Data Cleaning&lt;/div&gt;&lt;div&gt;Data Integrations&lt;/div&gt;&lt;div&gt;Aggregations&lt;/div&gt;&lt;div&gt;Business Logics&lt;/div&gt;&lt;div&gt;&lt;b&gt;&lt;br&gt;&lt;/b&gt;&lt;/div&gt;&lt;div&gt;&lt;b&gt;Data Model&lt;/b&gt; :&amp;nbsp;&lt;/div&gt;&lt;div&gt;Star Schema&lt;/div&gt;&lt;div&gt;Flat Table&lt;/div&gt;&lt;div&gt;Aggregated Table&lt;br&gt;&lt;div&gt;&lt;br&gt;&lt;/div&gt;&lt;/div&gt;" style="text;html=1;align=center;verticalAlign=middle;whiteSpace=wrap;rounded=0;" parent="1" vertex="1">
          <mxGeometry x="555" y="420" width="155" height="40" as="geometry" />
        </mxCell>
        <mxCell id="SIshTY0Xp3IrldlFeB-g-27" value="" style="shape=singleArrow;whiteSpace=wrap;html=1;" parent="1" vertex="1">
          <mxGeometry x="710.63" y="240" width="69.37" height="24" as="geometry" />
        </mxCell>
        <mxCell id="SIshTY0Xp3IrldlFeB-g-28" value="BI &amp;amp; Reporting&lt;div&gt;&lt;br&gt;&lt;/div&gt;&lt;div&gt;&lt;br&gt;&lt;/div&gt;&lt;div&gt;Ad-Hoc SQL Queries&lt;/div&gt;&lt;div&gt;&lt;br&gt;&lt;/div&gt;&lt;div&gt;&lt;br&gt;&lt;/div&gt;&lt;div&gt;&lt;br&gt;&lt;/div&gt;&lt;div&gt;ML&lt;/div&gt;&lt;div&gt;&lt;br&gt;&lt;/div&gt;&lt;div&gt;&lt;br&gt;&lt;/div&gt;&lt;div&gt;&lt;br&gt;&lt;/div&gt;&lt;div&gt;&lt;br&gt;&lt;/div&gt;" style="text;html=1;align=center;verticalAlign=middle;whiteSpace=wrap;rounded=0;" parent="1" vertex="1">
          <mxGeometry x="805" y="320" width="60" height="30" as="geometry" />
        </mxCell>
      </root>
    </mxGraphModel>
  </diagram>
</mxfile>
